<svg id="Layer_1" data-name="Layer 1" xmlns="http://www.w3.org/2000/svg" viewBox="0 0 18 18"><defs><style>.cls-1{fill:#f1f2f2;}</style></defs><title>_</title><path class="cls-1" d="M14.48,1.5h-11a2,2,0,0,0-2,2v11a2,2,0,0,0,2,2h5.4V11.14H7.54a.33.33,0,0,1-.33-.33V9.08a.33.33,0,0,1,.33-.33H8.93V7.09a2.73,2.73,0,0,1,2.91-3h1.42a.33.33,0,0,1,.33.33V5.88a.33.33,0,0,1-.33.33h-.87c-.94,0-1.12.45-1.12,1.1V8.75h2.07a.33.33,0,0,1,.33.37l-.2,1.73a.33.33,0,0,1-.33.29H11.27V16.5h3.22a2,2,0,0,0,2-2v-11A2,2,0,0,0,14.48,1.5Z"/></svg>